<?xml version="1.0" encoding="UTF-8"?>
<svg width="195px" height="20px" viewBox="0 0 195 20" version="1.1" xmlns="http://www.w3.org/2000/svg" xmlns:xlink="http://www.w3.org/1999/xlink">
    <title>DIGITALLEAN</title>
    <g id="Login" stroke="none" stroke-width="1" fill="none" fill-rule="evenodd">
        <g id="login-01" transform="translate(-406.000000, -450.000000)" fill="#000000" fill-rule="nonzero">
            <g id="编组-8" transform="translate(286.000000, 200.000000)">
                <path d="M127.49693,270 C129.285188,270 130.871694,269.743363 132.256448,269.230088 C133.641202,268.716814 134.808155,268.013438 135.757308,267.119961 C136.70646,266.226483 137.428642,265.183301 137.923852,263.990413 C138.419062,262.797525 138.666667,261.521468 138.666667,260.162242 C138.666667,258.650934 138.375502,257.305965 137.793171,256.127335 C137.210841,254.948705 136.392369,253.955424 135.337755,253.147493 C134.283141,252.339561 133.026775,251.724107 131.568656,251.301131 C130.110538,250.878155 128.510276,250.666667 126.76787,250.666667 L126.76787,250.666667 L120,250.666667 L120,270 L127.49693,270 Z M126.349158,267.333333 L124,267.333333 L124,252 L126.349158,252 C127.269355,252 128.116556,252.191667 128.890761,252.575 C129.664965,252.958333 130.330781,253.486008 130.888208,254.158025 C131.445636,254.830041 131.881402,255.627469 132.195508,256.550309 C132.509614,257.473148 132.666667,258.474074 132.666667,259.553086 C132.666667,260.802469 132.500766,261.909877 132.168964,262.875309 C131.837162,263.840741 131.383699,264.654733 130.808576,265.317284 C130.233452,265.979835 129.563213,266.481481 128.797856,266.822222 C128.0325,267.162963 127.216267,267.333333 126.349158,267.333333 L126.349158,267.333333 Z M147.333333,270 L147.333333,250.666667 L142.666667,250.666667 L142.666667,270 L147.333333,270 Z M161.534916,270 C162.515984,270 163.400295,269.943222 164.187849,269.829666 C164.975403,269.716111 165.702204,269.559972 166.36825,269.361249 C167.034295,269.162527 167.659839,268.925952 168.244879,268.651526 C168.829919,268.3771 169.41496,268.074284 170,267.74308 L170,267.74308 L170,260.33357 L162.398976,260.33357 L162.398976,261.980128 L165.50419,261.980128 L165.50419,267.090135 C165.081161,267.411876 164.617629,267.650816 164.113594,267.806955 C163.609559,267.963094 163.074022,268.041164 162.506983,268.041164 C161.552917,268.041164 160.659606,267.873196 159.827048,267.53726 C158.994491,267.201325 158.267691,266.706884 157.646648,266.053939 C157.025605,265.400994 156.535071,264.596641 156.175047,263.64088 C155.815022,262.685119 155.635009,261.582683 155.635009,260.33357 C155.635009,259.084457 155.803771,257.967826 156.141294,256.983676 C156.478818,255.999527 156.94685,255.169151 157.545391,254.492548 C158.143932,253.815945 158.850481,253.297847 159.665037,252.938254 C160.479593,252.578661 161.359404,252.398864 162.304469,252.398864 C162.925512,252.398864 163.508302,252.502957 164.05284,252.711143 C164.597377,252.919328 165.108163,253.205583 165.585196,253.569908 C166.062228,253.934232 166.512259,254.362432 166.935289,254.854507 C167.358318,255.346581 167.763346,255.88124 168.150372,256.458481 L168.150372,256.458481 L170,254.684173 C169.621974,254.088006 169.140441,253.508398 168.5554,252.945351 C167.97036,252.382304 167.313315,251.883132 166.584264,251.447835 C165.855214,251.012538 165.060909,250.662408 164.20135,250.397445 C163.341791,250.132482 162.448479,250 161.521415,250 C159.946307,250 158.494957,250.250769 157.167365,250.752307 C155.839773,251.253844 154.694444,251.958836 153.731378,252.867282 C152.768312,253.775727 152.01676,254.86397 151.476723,256.132009 C150.936685,257.400047 150.666667,258.800568 150.666667,260.33357 C150.666667,261.781405 150.936685,263.10149 151.476723,264.293825 C152.01676,265.48616 152.770562,266.50343 153.738128,267.345635 C154.705695,268.18784 155.853274,268.840785 157.180866,269.304471 C158.508457,269.768157 159.959808,270 161.534916,270 Z M179.333333,270 L179.333333,250.666667 L174.666667,250.666667 L174.666667,270 L179.333333,270 Z M192.516654,270 L192.516654,252.320551 L198.666667,252.320551 L198.666667,250.666667 L182,250.666667 L182,252.320551 L188.163126,252.320551 L188.163126,270 L192.516654,270 Z M203.69882,270 L206.086977,264.653179 L213.157529,264.653179 L215.438353,270 L220,270 L211.467037,250 L209.535045,250 L200.666667,270 L203.69882,270 Z M211.333333,262.666667 L206,262.666667 L208.705882,256.666667 L211.333333,262.666667 Z M236,270 L236,268.018191 L226.548293,268.018191 L226.548293,250.666667 L222,250.666667 L222,270 L236,270 Z M259.333333,270 L259.333333,268.018191 L249.881626,268.018191 L249.881626,250.666667 L245.333333,250.666667 L245.333333,270 L259.333333,270 Z M276,270 L276,268.018191 L266.602172,268.018191 L266.602172,260.347591 L274.410661,260.347591 L274.410661,258.693707 L266.602172,258.693707 L266.602172,252.320551 L276,252.320551 L276,250.666667 L262,250.666667 L262,270 L276,270 Z M279.69882,270 L282.086977,264.653179 L289.157529,264.653179 L291.438353,270 L296,270 L287.467037,250 L285.535045,250 L276.666667,270 L279.69882,270 Z M288,262.666667 L282.666667,262.666667 L285.372549,256.666667 L288,262.666667 Z M314.666667,270 L314.666667,250.666667 L311.879397,250.666667 L311.879397,262.778101 L301.520938,250.666667 L298.666667,250.666667 L298.666667,269.718992 L301.494137,269.718992 L301.494137,256.624031 L312.750419,270 L314.666667,270 Z" id="DIGITALLEAN"></path>
            </g>
        </g>
    </g>
</svg>