<?xml version="1.0" encoding="UTF-8"?>
<svg width="58px" height="60px" viewBox="0 0 58 60" version="1.1" xmlns="http://www.w3.org/2000/svg" xmlns:xlink="http://www.w3.org/1999/xlink">
    <title>编组 7</title>
    <defs>
        <linearGradient x1="129.116445%" y1="50%" x2="-18.1958344%" y2="50%" id="linearGradient-1">
            <stop stop-color="#0D70E6" offset="0%"></stop>
            <stop stop-color="#000000" offset="100%"></stop>
        </linearGradient>
    </defs>
    <g id="Login" stroke="none" stroke-width="1" fill="none" fill-rule="evenodd">
        <g id="login-01" transform="translate(-475.000000, -360.000000)">
            <g id="编组-8" transform="translate(286.000000, 200.000000)">
                <g id="编组-7" transform="translate(189.000000, 160.000000)">
                    <path d="M27.3616733,1.2978596e-11 L27.361484,10.6340109 L9.347,13.432 L9.347,45.784 L27.3497185,48.6432614 L27.3913043,59.3478261 L7.03501577e-09,55.4658261 L1.63069558e-13,4.78968286 L0.117,4.775 L27.3616733,1.2978596e-11 Z M18.9698222,17.2139347 L19.0893114,35.2414427 L27.3913043,36.7936059 L27.2796792,43.7639203 L12.7187118,40.9786463 L12.7187118,18.2984459 L18.9698222,17.2139347 Z" id="形状结合" fill="url(#linearGradient-1)"></path>
                    <path d="M56.7391304,29.673913 C56.7391304,44.1152032 44.2089669,56.2097064 27.3911441,59.347856 L27.3916302,48.6071975 C37.2541504,45.924502 44.3515432,38.4385362 44.3515432,29.6232925 C44.3515432,20.8080488 37.2541504,13.322083 27.3916302,10.6393875 L27.3911441,-2.99106186e-05 C44.2089669,3.13811967 56.7391304,15.2326228 56.7391304,29.673913 Z" id="形状结合" fill="#0D70E6"></path>
                </g>
            </g>
        </g>
    </g>
</svg>